# xmcd
#
# Track frame offsets:
#	150
#	11275
#	19858
#	40542
#	56180
#	74538
#	83179
#	98421
#	116094
#	132711
#	145378
#	154926
#	163134
#	174541
#	187025
#
# Disc length: 2660 seconds
#
# Revision: 1
# Processed by: cddbd v1.5.2PL0 Copyright (c) Steve Scherf et al.
# Submitted via: audiograbber 1.83.01
#
DISCID=d10a620f
DTITLE=Nat King Cole - Too Marvellous For Words
DYEAR=1900
DGENRE=Soul
TTITLE0=Sweet Georgia Brown
TTITLE1=Yes Sir, That's My Baby
TTITLE2=Bugle Call Rag
TTITLE3=Satchel Mouth Baby
TTITLE4=Cole's Bop Blues
TTITLE5=It's Only A Paper Moon
TTITLE6=Embraceable  You
TTITLE7=Body And Soul
TTITLE8=Old Piano Plays The Blues
TTITLE9=Man On The Little White Keys
TTITLE10=Miss Thing
TTITLE11=I'm Lost
TTITLE12=Too Marvellous For Words
TTITLE13=If You Can't Smile And Say Yes
TTITLE14=On The Sunny Side Of The Street
EXTD=
EXTT0=
EXTT1=
EXTT2=
EXTT3=
EXTT4=
EXTT5=
EXTT6=
EXTT7=
EXTT8=
EXTT9=
EXTT10=
EXTT11=
EXTT12=
EXTT13=
EXTT14=
PLAYORDER=
